inDegrees=no
num_controls=7
num_derivatives=13
num_iterations=102
num_multipliers=7
num_parameters=0
num_slacks=7
num_states=26
objective=0.500104
objective_accelerations=0.016492
objective_balance=0.003882
objective_effort=0.052648
objective_height=0.421562
objective_ligament=0.005520
solver_duration=1246.142627
status=Solve_Succeeded
success=true
DataType=double
version=3
OpenSimVersion=4.5
endheader
time	/jointset/ground_pelvis/pelvis_tilt/value	/jointset/ground_pelvis/pelvis_tx/value	/jointset/ground_pelvis/pelvis_ty/value	/jointset/hip_l/hip_flexion_l/value	/jointset/hip_l/hip_adduction_l/value	/jointset/hip_l/hip_rotation_l/value	/jointset/back/lumbar_extension/value	/jointset/patellofemoral_l/patellar_flexion_l/value	/jointset/knee_l/knee_flexion_l/value	/jointset/knee_l/knee_adduction_l/value	/jointset/knee_l/knee_rotation_l/value	/jointset/ankle_l/ankle_angle_l/value	/jointset/subtalar_l/subtalar_angle_l/value	/jointset/ground_pelvis/pelvis_tilt/speed	/jointset/ground_pelvis/pelvis_tx/speed	/jointset/ground_pelvis/pelvis_ty/speed	/jointset/hip_l/hip_flexion_l/speed	/jointset/hip_l/hip_adduction_l/speed	/jointset/hip_l/hip_rotation_l/speed	/jointset/back/lumbar_extension/speed	/jointset/patellofemoral_l/patellar_flexion_l/speed	/jointset/knee_l/knee_flexion_l/speed	/jointset/knee_l/knee_adduction_l/speed	/jointset/knee_l/knee_rotation_l/speed	/jointset/ankle_l/ankle_angle_l/speed	/jointset/subtalar_l/subtalar_angle_l/speed	/forceset/tau_hip_flexion_l	/forceset/tau_hip_adduction_l	/forceset/tau_hip_rotation_l	/forceset/tau_knee_flexion_l	/forceset/tau_ankle_angle_l	/forceset/tau_subtalar_angle_l	/forceset/tau_lumbar_extension	lambda_cid13_p0	lambda_cid13_p1	lambda_cid13_p2	lambda_cid13_p3	lambda_cid13_p4	lambda_cid13_p5	lambda_cid14_p0	/jointset/ground_pelvis/pelvis_tilt/accel	/jointset/ground_pelvis/pelvis_tx/accel	/jointset/ground_pelvis/pelvis_ty/accel	/jointset/hip_l/hip_flexion_l/accel	/jointset/hip_l/hip_adduction_l/accel	/jointset/hip_l/hip_rotation_l/accel	/jointset/back/lumbar_extension/accel	/jointset/patellofemoral_l/patellar_flexion_l/accel	/jointset/knee_l/knee_flexion_l/accel	/jointset/knee_l/knee_adduction_l/accel	/jointset/knee_l/knee_rotation_l/accel	/jointset/ankle_l/ankle_angle_l/accel	/jointset/subtalar_l/subtalar_angle_l/accel	gamma_cid13_p0	gamma_cid13_p1	gamma_cid13_p2	gamma_cid13_p3	gamma_cid13_p4	gamma_cid13_p5	gamma_cid14_p0
0	-0.03682392646968447	0.05667794145804696	0.9203415653412658	0.3085816938045678	-0.2956403497199396	-0.3016074881045432	-0.3879492264334186	0.2499269421184949	0.2499269421184919	-0.1745329036455717	-0.1745328936048409	-0.0008036623358878681	0.0004377344605614308	0	0	0	0	0	0	0	0	0	0	0	0	0	0.09993561179458456	-0.0512489078293446	-0.02644908755976672	-0.2907987197931107	0.2412578649791723	-0.02822231452489541	-0.01305962025516952	31.72883011087954	4.446533827159543	1.41246487393364	8.038956583796596	-645.0730229505532	-71.50696713748233	-23.19716554545489	-2.010634078605032	-2.058138928769904	-0.6074030484331765	7.096997888777005	0.2242960338427773	1.064632534131588	-7.025333181449278	3.419836353577908	3.419836353578115	1.54438390315704	0.004446249548020267	-1.262986402080058	-0.2183573306534701	2.035807403878121e-08	4.407585335870885e-08	-5.128311089310889e-09	-1.10543650389962e-08	1.147186053736146e-07	3.516622934085315e-08	5.953891430274226e-09
0.01	-0.03692038035050179	0.05657732782386175	0.9203119548972873	0.3089272980176633	-0.2956296100608071	-0.3015532616618999	-0.3882957420008734	0.2500952131976704	0.2500952131976731	-0.1744576775210563	-0.1745309947227398	-0.0008645610951459927	0.0004270908639786672	-0.01909936749732137	-0.01990897923008738	-0.005880108539594373	0.06857669417251451	0.002133295553341788	0.01080086636136152	-0.06861563234194588	0.03357900444613141	0.03357900444613163	0.01499357305877811	0.0003659725194640349	-0.01190891166365514	-0.002049586510831297	0.09069811559161033	-0.06120124139952485	-0.02520610058232644	-0.2827722795938598	0.2304674760085994	-0.01326360485096178	-0.004522901124339429	28.76699329200224	-1.466984787981708	2.281620891575467	6.833985494378945	-647.9095138076827	-82.93760540340199	-23.19881795595584	-1.830877639376419	-1.925217489804335	-0.5719947745919217	6.656384215186161	0.2056453731257065	1.081152435919164	-6.676556088316611	3.315649591037231	3.31564959103713	1.46910157460631	0.05060045497682127	-1.114214263979851	-0.1863962017859394	1.358148495108053e-08	3.607702525066268e-08	1.033548405771756e-08	-2.26843803432241e-09	5.119848339988419e-08	1.585277966814005e-08	5.707793019699767e-09
0.02	-0.03720208581710546	0.05628403638344056	0.920224807364339	0.3099423449792231	-0.2955979776347323	-0.3013923588058865	-0.3893077894572974	0.2505970177414896	0.2505970177414935	-0.1742340641524693	-0.1745258505749718	-0.001036423114134857	0.0003983240241900157	-0.03705031715788411	-0.03853556124719771	-0.01150741779396097	0.133888549692928	0.004178553388516592	0.02133528267394948	-0.1331063777938745	0.06670669292852209	0.06670669292852148	0.02967744881228025	0.0006490531121737884	-0.02219265194617409	-0.003624648641181991	0.08146061938861937	-0.07115357496970558	-0.02396311360490028	-0.2747458393946148	0.2196770870380243	0.001695104822970813	0.004013818006479491	25.83455231583261	-7.382308053170575	3.147246789704406	5.699887250280549	-650.2284984947656	-94.32640830974243	-23.2037547351806	-1.780950511253375	-1.801659486174441	-0.5568431913876233	6.444030158356801	0.2066884902093495	1.011342524376727	-6.200355803445873	3.329573160829777	3.329573160829773	1.482444442101802	-0.01213213580299857	-0.937952125852765	-0.1234524545573606	6.804895863379836e-09	2.807819714261652e-08	2.5799279204746e-08	6.517488970351375e-09	-1.232163857384627e-08	-3.460670004573053e-09	5.461694609125307e-09
0.03	-0.03765817032304894	0.05580989525380077	0.920082341932869	0.3115963664333172	-0.2955466552222415	-0.3011275843903246	-0.3909470115041034	0.2514283439790624	0.2514283439790649	-0.1738656798637156	-0.1745187254085003	-0.001304317742947468	0.0003553906773160598	-0.05401754153739135	-0.05617785563834365	-0.01697263795176789	0.1965724817453732	0.006034542667871887	0.03161651258622916	-0.1943584279352755	0.09953714809406077	0.09953714809406056	0.04388304929679281	0.0007685360344378818	-0.03124027037009614	-0.004964597391362791	0.07416300521442973	-0.06383701857674179	-0.02299943376052063	-0.2675277292781322	0.2142546602531903	-0.0009555746166688165	0.01014897511107763	24.0092104270096	-6.001602421421273	3.030027351506692	5.731345676747656	-650.8954968416515	-90.39932451682425	-23.21192354824581	-1.63225029985533	-1.728291720089661	-0.5394095667102898	6.129087184710618	0.1673389450893478	1.036046520529493	-6.030689074795616	3.256569629234479	3.256569629234522	1.372170282165988	0.02287590883819185	-0.8662631612104186	-0.1396602984607503	3.555282877033474e-09	1.78768775881662e-08	3.842241570158808e-08	7.770188317941312e-09	-3.239725011601736e-08	-9.814033514384605e-09	2.852536935021926e-09
